<mxfile host="app.diagrams.net" agent="Mozilla/5.0 (Macintosh; Intel Mac OS X 10_15_7) AppleWebKit/537.36 (KHTML, like Gecko) Chrome/127.0.0.0 Safari/537.36 Edg/127.0.0.0" version="24.7.5">
  <diagram name="Page-1" id="4__jY9YVqlJ31psE56tC">
    <mxGraphModel dx="1645" dy="538" grid="1" gridSize="10" guides="1" tooltips="1" connect="1" arrows="1" fold="1" page="1" pageScale="1" pageWidth="850" pageHeight="1100" math="0" shadow="0">
      <root>
        <mxCell id="0" />
        <mxCell id="1" parent="0" />
        <mxCell id="GIhk7W3J_sn6X2ElXR6Z-19" value="&lt;h3&gt;1. Window(width, height)&lt;/h3&gt;" style="rounded=1;whiteSpace=wrap;html=1;points=[[0,0,0,0,0],[0,0.25,0,0,0],[0,0.5,0,0,0],[0,0.75,0,0,0],[0,1,0,0,0],[0.25,0,0,0,0],[0.25,1,0,0,0],[0.5,0,0,0,0],[0.5,1,0,0,0],[0.75,0,0,0,0],[0.75,1,0,0,0],[1,0,0,0,0],[1,0.25,0,0,0],[1,0.5,0,0,0],[1,0.75,0,0,0],[1,1,0,0,0]];glass=0;shadow=0;fillColor=#d0cee2;strokeColor=#56517e;" parent="1" vertex="1">
          <mxGeometry x="50" y="300" width="260" height="60" as="geometry" />
        </mxCell>
        <mxCell id="GIhk7W3J_sn6X2ElXR6Z-17" value="" style="edgeStyle=orthogonalEdgeStyle;rounded=0;orthogonalLoop=1;jettySize=auto;entryX=0;entryY=0.5;entryDx=0;entryDy=0;jumpStyle=arc;jumpSize=6;fontFamily=Helvetica;horizontal=1;align=center;labelBorderColor=none;html=1;labelBackgroundColor=none;fontColor=#000000;verticalAlign=bottom;" parent="1" source="GIhk7W3J_sn6X2ElXR6Z-15" target="GIhk7W3J_sn6X2ElXR6Z-19" edge="1">
          <mxGeometry x="-0.0025" relative="1" as="geometry">
            <mxPoint x="160" y="280" as="targetPoint" />
            <mxPoint as="offset" />
          </mxGeometry>
        </mxCell>
        <mxCell id="oYEN3Hpr3XUJl6wz0SNG-26" style="edgeStyle=orthogonalEdgeStyle;rounded=0;orthogonalLoop=1;jettySize=auto;html=1;entryX=0;entryY=0.5;entryDx=0;entryDy=0;entryPerimeter=0;" edge="1" parent="1" source="GIhk7W3J_sn6X2ElXR6Z-15" target="oYEN3Hpr3XUJl6wz0SNG-24">
          <mxGeometry relative="1" as="geometry">
            <mxPoint x="-20" y="820" as="targetPoint" />
          </mxGeometry>
        </mxCell>
        <mxCell id="GIhk7W3J_sn6X2ElXR6Z-15" value="&lt;h1&gt;Maze solver&lt;/h1&gt;" style="ellipse;whiteSpace=wrap;html=1;aspect=fixed;fontSize=14;fillColor=#f8cecc;strokeColor=#b85450;gradientColor=none;" parent="1" vertex="1">
          <mxGeometry x="-380" y="520" width="220" height="220" as="geometry" />
        </mxCell>
        <mxCell id="GIhk7W3J_sn6X2ElXR6Z-29" value="Create a window using python" style="shape=note;whiteSpace=wrap;html=1;backgroundOutline=1;darkOpacity=0.05;fillColor=#dae8fc;strokeColor=#6c8ebf;fillStyle=solid;direction=west;gradientDirection=north;shadow=1;size=20;pointerEvents=1;align=center;verticalAlign=middle;fontFamily=Helvetica;fontSize=12;" parent="1" vertex="1">
          <mxGeometry x="90" y="190" width="180" height="60" as="geometry" />
        </mxCell>
        <mxCell id="GIhk7W3J_sn6X2ElXR6Z-30" style="rounded=0;orthogonalLoop=1;jettySize=auto;html=1;entryX=0.5;entryY=0;entryDx=0;entryDy=0;entryPerimeter=0;elbow=vertical;shape=link;dashed=1;" parent="1" source="GIhk7W3J_sn6X2ElXR6Z-29" target="GIhk7W3J_sn6X2ElXR6Z-19" edge="1">
          <mxGeometry relative="1" as="geometry" />
        </mxCell>
        <mxCell id="GIhk7W3J_sn6X2ElXR6Z-32" style="edgeStyle=orthogonalEdgeStyle;rounded=0;orthogonalLoop=1;jettySize=auto;html=1;entryX=0;entryY=0.5;entryDx=0;entryDy=0;entryPerimeter=0;" parent="1" source="GIhk7W3J_sn6X2ElXR6Z-15" target="oYEN3Hpr3XUJl6wz0SNG-1" edge="1">
          <mxGeometry relative="1" as="geometry">
            <mxPoint x="40" y="565" as="targetPoint" />
          </mxGeometry>
        </mxCell>
        <mxCell id="oYEN3Hpr3XUJl6wz0SNG-6" value="" style="edgeStyle=orthogonalEdgeStyle;rounded=0;orthogonalLoop=1;jettySize=auto;html=1;" edge="1" parent="1" source="oYEN3Hpr3XUJl6wz0SNG-1" target="oYEN3Hpr3XUJl6wz0SNG-5">
          <mxGeometry relative="1" as="geometry" />
        </mxCell>
        <mxCell id="oYEN3Hpr3XUJl6wz0SNG-1" value="&lt;h3&gt;2. Maze(x, y, maze_cols, maze_rows, cell_size_x, cell_size_y, win, seed)&lt;/h3&gt;" style="rounded=1;whiteSpace=wrap;html=1;points=[[0,0,0,0,0],[0,0.25,0,0,0],[0,0.5,0,0,0],[0,0.75,0,0,0],[0,1,0,0,0],[0.25,0,0,0,0],[0.25,1,0,0,0],[0.5,0,0,0,0],[0.5,1,0,0,0],[0.75,0,0,0,0],[0.75,1,0,0,0],[1,0,0,0,0],[1,0.25,0,0,0],[1,0.5,0,0,0],[1,0.75,0,0,0],[1,1,0,0,0]];glass=0;shadow=0;fillColor=#d0cee2;strokeColor=#56517e;" vertex="1" parent="1">
          <mxGeometry x="50" y="600" width="260" height="60" as="geometry" />
        </mxCell>
        <mxCell id="oYEN3Hpr3XUJl6wz0SNG-4" style="edgeStyle=orthogonalEdgeStyle;rounded=0;orthogonalLoop=1;jettySize=auto;html=1;dashed=1;shape=link;" edge="1" parent="1" source="oYEN3Hpr3XUJl6wz0SNG-3" target="oYEN3Hpr3XUJl6wz0SNG-1">
          <mxGeometry relative="1" as="geometry" />
        </mxCell>
        <mxCell id="oYEN3Hpr3XUJl6wz0SNG-3" value="Create a Maze structure that holds all the cells, seed is optional. If seed not specify will use the current time as seed&lt;br&gt;&lt;br&gt;win is the window created in step 1" style="shape=note;whiteSpace=wrap;html=1;backgroundOutline=1;darkOpacity=0.05;fillColor=#dae8fc;strokeColor=#6c8ebf;fillStyle=solid;direction=west;gradientDirection=north;shadow=1;size=20;pointerEvents=1;align=center;verticalAlign=middle;fontFamily=Helvetica;fontSize=12;" vertex="1" parent="1">
          <mxGeometry x="70" y="456" width="220" height="102" as="geometry" />
        </mxCell>
        <mxCell id="oYEN3Hpr3XUJl6wz0SNG-9" value="" style="edgeStyle=orthogonalEdgeStyle;rounded=0;orthogonalLoop=1;jettySize=auto;html=1;" edge="1" parent="1" source="oYEN3Hpr3XUJl6wz0SNG-5" target="oYEN3Hpr3XUJl6wz0SNG-8">
          <mxGeometry relative="1" as="geometry" />
        </mxCell>
        <mxCell id="oYEN3Hpr3XUJl6wz0SNG-5" value="&lt;h3&gt;Maze.create_cells()&lt;/h3&gt;" style="whiteSpace=wrap;html=1;fillColor=#d0cee2;strokeColor=#56517e;rounded=1;glass=0;shadow=0;" vertex="1" parent="1">
          <mxGeometry x="460" y="600" width="160" height="60" as="geometry" />
        </mxCell>
        <mxCell id="oYEN3Hpr3XUJl6wz0SNG-36" style="edgeStyle=orthogonalEdgeStyle;rounded=0;orthogonalLoop=1;jettySize=auto;html=1;entryX=0.5;entryY=0;entryDx=0;entryDy=0;dashed=1;shape=link;" edge="1" parent="1" source="oYEN3Hpr3XUJl6wz0SNG-7" target="oYEN3Hpr3XUJl6wz0SNG-5">
          <mxGeometry relative="1" as="geometry" />
        </mxCell>
        <mxCell id="oYEN3Hpr3XUJl6wz0SNG-7" value="Create all the cells for the programs&lt;div&gt;format: self.cells&lt;br&gt;[ [all the node in cells in &lt;b style=&quot;color: rgb(255, 51, 51);&quot;&gt;one &lt;/b&gt;column], [], []&amp;nbsp;]&lt;/div&gt;" style="shape=note;whiteSpace=wrap;html=1;backgroundOutline=1;darkOpacity=0.05;fillColor=#dae8fc;strokeColor=#6c8ebf;fillStyle=solid;direction=west;gradientDirection=north;shadow=1;size=20;pointerEvents=1;align=center;verticalAlign=middle;fontFamily=Helvetica;fontSize=12;" vertex="1" parent="1">
          <mxGeometry x="433.75" y="459.5" width="212.5" height="95" as="geometry" />
        </mxCell>
        <mxCell id="oYEN3Hpr3XUJl6wz0SNG-13" value="" style="edgeStyle=orthogonalEdgeStyle;rounded=0;orthogonalLoop=1;jettySize=auto;html=1;" edge="1" parent="1" source="oYEN3Hpr3XUJl6wz0SNG-8" target="oYEN3Hpr3XUJl6wz0SNG-12">
          <mxGeometry relative="1" as="geometry" />
        </mxCell>
        <mxCell id="oYEN3Hpr3XUJl6wz0SNG-8" value="&lt;h3&gt;Maze.draw_cells()&lt;/h3&gt;" style="whiteSpace=wrap;html=1;fillColor=#d0cee2;strokeColor=#56517e;rounded=1;glass=0;shadow=0;" vertex="1" parent="1">
          <mxGeometry x="720" y="600" width="150" height="60" as="geometry" />
        </mxCell>
        <mxCell id="oYEN3Hpr3XUJl6wz0SNG-10" value="Draw all the cells into the canvas one by one" style="shape=note;whiteSpace=wrap;html=1;backgroundOutline=1;darkOpacity=0.05;fillColor=#dae8fc;strokeColor=#6c8ebf;fillStyle=solid;direction=west;gradientDirection=north;shadow=1;size=20;pointerEvents=1;align=center;verticalAlign=middle;fontFamily=Helvetica;fontSize=12;" vertex="1" parent="1">
          <mxGeometry x="700" y="494.5" width="190" height="60" as="geometry" />
        </mxCell>
        <mxCell id="oYEN3Hpr3XUJl6wz0SNG-16" value="" style="edgeStyle=orthogonalEdgeStyle;rounded=0;orthogonalLoop=1;jettySize=auto;html=1;" edge="1" parent="1" source="oYEN3Hpr3XUJl6wz0SNG-12" target="oYEN3Hpr3XUJl6wz0SNG-15">
          <mxGeometry relative="1" as="geometry" />
        </mxCell>
        <mxCell id="oYEN3Hpr3XUJl6wz0SNG-12" value="&lt;h3&gt;Maze.break_entrance_and_exit()&lt;/h3&gt;" style="whiteSpace=wrap;html=1;fillColor=#d0cee2;strokeColor=#56517e;rounded=1;glass=0;shadow=0;" vertex="1" parent="1">
          <mxGeometry x="965" y="600" width="255" height="60" as="geometry" />
        </mxCell>
        <mxCell id="oYEN3Hpr3XUJl6wz0SNG-34" style="edgeStyle=orthogonalEdgeStyle;rounded=0;orthogonalLoop=1;jettySize=auto;html=1;entryX=0.5;entryY=0;entryDx=0;entryDy=0;dashed=1;shape=link;" edge="1" parent="1" source="oYEN3Hpr3XUJl6wz0SNG-14" target="oYEN3Hpr3XUJl6wz0SNG-12">
          <mxGeometry relative="1" as="geometry" />
        </mxCell>
        <mxCell id="oYEN3Hpr3XUJl6wz0SNG-14" value="Break one &lt;b&gt;top wall&lt;/b&gt; in the &lt;b&gt;top left&lt;/b&gt; cell and break one &lt;b&gt;bottom wall&lt;/b&gt; in the&lt;b&gt; bottom right&lt;/b&gt; cell" style="shape=note;whiteSpace=wrap;html=1;backgroundOutline=1;darkOpacity=0.05;fillColor=#dae8fc;strokeColor=#6c8ebf;fillStyle=solid;direction=west;gradientDirection=north;shadow=1;size=20;pointerEvents=1;align=center;verticalAlign=middle;fontFamily=Helvetica;fontSize=12;" vertex="1" parent="1">
          <mxGeometry x="983.75" y="486" width="217.5" height="74" as="geometry" />
        </mxCell>
        <mxCell id="oYEN3Hpr3XUJl6wz0SNG-19" value="" style="edgeStyle=orthogonalEdgeStyle;rounded=0;orthogonalLoop=1;jettySize=auto;html=1;" edge="1" parent="1" source="oYEN3Hpr3XUJl6wz0SNG-15" target="oYEN3Hpr3XUJl6wz0SNG-18">
          <mxGeometry relative="1" as="geometry" />
        </mxCell>
        <mxCell id="oYEN3Hpr3XUJl6wz0SNG-15" value="&lt;h3&gt;Maze.break_walls_r(x, y)&lt;/h3&gt;" style="whiteSpace=wrap;html=1;fillColor=#d0cee2;strokeColor=#56517e;rounded=1;glass=0;shadow=0;" vertex="1" parent="1">
          <mxGeometry x="1367.5" y="600" width="182.5" height="60" as="geometry" />
        </mxCell>
        <mxCell id="oYEN3Hpr3XUJl6wz0SNG-33" style="edgeStyle=orthogonalEdgeStyle;rounded=0;orthogonalLoop=1;jettySize=auto;html=1;dashed=1;shape=link;" edge="1" parent="1" source="oYEN3Hpr3XUJl6wz0SNG-17" target="oYEN3Hpr3XUJl6wz0SNG-15">
          <mxGeometry relative="1" as="geometry" />
        </mxCell>
        <mxCell id="oYEN3Hpr3XUJl6wz0SNG-17" value="Transform a grid of cell into a maze that guarantees at least one exit, randomly breaks wall in each cell.&amp;nbsp;&lt;br&gt;&lt;br&gt;x,y specifies position to break the maze from&lt;br&gt;&lt;div&gt;&lt;br&gt;&lt;/div&gt;&lt;div&gt;Using recursion&lt;/div&gt;" style="shape=note;whiteSpace=wrap;html=1;backgroundOutline=1;darkOpacity=0.05;fillColor=#dae8fc;strokeColor=#6c8ebf;fillStyle=solid;direction=west;gradientDirection=north;shadow=1;size=20;pointerEvents=1;align=center;verticalAlign=middle;fontFamily=Helvetica;fontSize=12;" vertex="1" parent="1">
          <mxGeometry x="1359.61" y="422" width="198.28" height="138" as="geometry" />
        </mxCell>
        <mxCell id="oYEN3Hpr3XUJl6wz0SNG-22" value="" style="edgeStyle=orthogonalEdgeStyle;rounded=0;orthogonalLoop=1;jettySize=auto;html=1;" edge="1" parent="1" source="oYEN3Hpr3XUJl6wz0SNG-18" target="oYEN3Hpr3XUJl6wz0SNG-21">
          <mxGeometry relative="1" as="geometry" />
        </mxCell>
        <mxCell id="oYEN3Hpr3XUJl6wz0SNG-18" value="&lt;h3&gt;Maze.reset_cell_visited()&lt;/h3&gt;" style="whiteSpace=wrap;html=1;fillColor=#d0cee2;strokeColor=#56517e;rounded=1;glass=0;shadow=0;" vertex="1" parent="1">
          <mxGeometry x="1661.25" y="600" width="188.75" height="60" as="geometry" />
        </mxCell>
        <mxCell id="oYEN3Hpr3XUJl6wz0SNG-32" style="edgeStyle=orthogonalEdgeStyle;rounded=0;orthogonalLoop=1;jettySize=auto;html=1;dashed=1;shape=link;" edge="1" parent="1" source="oYEN3Hpr3XUJl6wz0SNG-20" target="oYEN3Hpr3XUJl6wz0SNG-18">
          <mxGeometry relative="1" as="geometry" />
        </mxCell>
        <mxCell id="oYEN3Hpr3XUJl6wz0SNG-20" value="Reset all the cell.visited status to false, preparing for the solve step" style="shape=note;whiteSpace=wrap;html=1;backgroundOutline=1;darkOpacity=0.05;fillColor=#dae8fc;strokeColor=#6c8ebf;fillStyle=solid;direction=west;gradientDirection=north;shadow=1;size=20;pointerEvents=1;align=center;verticalAlign=middle;fontFamily=Helvetica;fontSize=12;" vertex="1" parent="1">
          <mxGeometry x="1660" y="468" width="190" height="90" as="geometry" />
        </mxCell>
        <mxCell id="oYEN3Hpr3XUJl6wz0SNG-28" value="" style="edgeStyle=orthogonalEdgeStyle;rounded=0;orthogonalLoop=1;jettySize=auto;html=1;" edge="1" parent="1" source="oYEN3Hpr3XUJl6wz0SNG-21" target="oYEN3Hpr3XUJl6wz0SNG-27">
          <mxGeometry relative="1" as="geometry" />
        </mxCell>
        <mxCell id="oYEN3Hpr3XUJl6wz0SNG-21" value="Maze.solve()" style="whiteSpace=wrap;html=1;fillColor=#d0cee2;strokeColor=#56517e;rounded=1;glass=0;shadow=0;" vertex="1" parent="1">
          <mxGeometry x="1964.375" y="600" width="120" height="60" as="geometry" />
        </mxCell>
        <mxCell id="oYEN3Hpr3XUJl6wz0SNG-31" style="edgeStyle=orthogonalEdgeStyle;rounded=0;orthogonalLoop=1;jettySize=auto;html=1;dashed=1;shape=link;" edge="1" parent="1" source="oYEN3Hpr3XUJl6wz0SNG-23" target="oYEN3Hpr3XUJl6wz0SNG-21">
          <mxGeometry relative="1" as="geometry" />
        </mxCell>
        <mxCell id="oYEN3Hpr3XUJl6wz0SNG-23" value="call function to solve the maze" style="shape=note;whiteSpace=wrap;html=1;backgroundOutline=1;darkOpacity=0.05;fillColor=#dae8fc;strokeColor=#6c8ebf;fillStyle=solid;direction=west;gradientDirection=north;shadow=1;size=20;pointerEvents=1;align=center;verticalAlign=middle;fontFamily=Helvetica;fontSize=12;" vertex="1" parent="1">
          <mxGeometry x="1940.16" y="480" width="168.43" height="78" as="geometry" />
        </mxCell>
        <mxCell id="oYEN3Hpr3XUJl6wz0SNG-24" value="&lt;h3&gt;&lt;span style=&quot;font-size: 14.04px;&quot;&gt;3. Window.wait_for_close()&lt;/span&gt;&lt;br&gt;&lt;/h3&gt;" style="rounded=1;whiteSpace=wrap;html=1;points=[[0,0,0,0,0],[0,0.25,0,0,0],[0,0.5,0,0,0],[0,0.75,0,0,0],[0,1,0,0,0],[0.25,0,0,0,0],[0.25,1,0,0,0],[0.5,0,0,0,0],[0.5,1,0,0,0],[0.75,0,0,0,0],[0.75,1,0,0,0],[1,0,0,0,0],[1,0.25,0,0,0],[1,0.5,0,0,0],[1,0.75,0,0,0],[1,1,0,0,0]];glass=0;shadow=0;fillColor=#d0cee2;strokeColor=#56517e;" vertex="1" parent="1">
          <mxGeometry x="50" y="900" width="260" height="60" as="geometry" />
        </mxCell>
        <mxCell id="oYEN3Hpr3XUJl6wz0SNG-25" value="Only close the window when user click the close button, if not this code will automatically close the window as soon as the program finish" style="shape=note;whiteSpace=wrap;html=1;backgroundOutline=1;darkOpacity=0.05;fillColor=#dae8fc;strokeColor=#6c8ebf;fillStyle=solid;direction=west;gradientDirection=north;shadow=1;size=20;pointerEvents=1;align=center;verticalAlign=middle;fontFamily=Helvetica;fontSize=12;" vertex="1" parent="1">
          <mxGeometry x="70" y="750" width="220" height="102" as="geometry" />
        </mxCell>
        <mxCell id="oYEN3Hpr3XUJl6wz0SNG-27" value="self.solve_r(x,y)" style="whiteSpace=wrap;html=1;fillColor=#d0cee2;strokeColor=#56517e;rounded=1;glass=0;shadow=0;" vertex="1" parent="1">
          <mxGeometry x="2260.005" y="600" width="120" height="60" as="geometry" />
        </mxCell>
        <mxCell id="oYEN3Hpr3XUJl6wz0SNG-30" style="edgeStyle=orthogonalEdgeStyle;rounded=0;orthogonalLoop=1;jettySize=auto;html=1;dashed=1;shape=link;" edge="1" parent="1" source="oYEN3Hpr3XUJl6wz0SNG-29" target="oYEN3Hpr3XUJl6wz0SNG-27">
          <mxGeometry relative="1" as="geometry" />
        </mxCell>
        <mxCell id="oYEN3Hpr3XUJl6wz0SNG-29" value="Helper function in solve, use recursion to solve the maze&lt;br&gt;&lt;br&gt;X,y specifies position to start solving maze" style="shape=note;whiteSpace=wrap;html=1;backgroundOutline=1;darkOpacity=0.05;fillColor=#dae8fc;strokeColor=#6c8ebf;fillStyle=solid;direction=west;gradientDirection=north;shadow=1;size=20;pointerEvents=1;align=center;verticalAlign=middle;fontFamily=Helvetica;fontSize=12;" vertex="1" parent="1">
          <mxGeometry x="2214.85" y="459" width="210.31" height="95.5" as="geometry" />
        </mxCell>
        <mxCell id="oYEN3Hpr3XUJl6wz0SNG-35" style="edgeStyle=orthogonalEdgeStyle;rounded=0;orthogonalLoop=1;jettySize=auto;html=1;entryX=0.5;entryY=0;entryDx=0;entryDy=0;dashed=1;shape=link;" edge="1" parent="1" source="oYEN3Hpr3XUJl6wz0SNG-10" target="oYEN3Hpr3XUJl6wz0SNG-8">
          <mxGeometry relative="1" as="geometry" />
        </mxCell>
        <mxCell id="oYEN3Hpr3XUJl6wz0SNG-37" style="edgeStyle=orthogonalEdgeStyle;rounded=0;orthogonalLoop=1;jettySize=auto;html=1;entryX=0.5;entryY=0;entryDx=0;entryDy=0;entryPerimeter=0;shape=link;dashed=1;" edge="1" parent="1" source="oYEN3Hpr3XUJl6wz0SNG-25" target="oYEN3Hpr3XUJl6wz0SNG-24">
          <mxGeometry relative="1" as="geometry" />
        </mxCell>
      </root>
    </mxGraphModel>
  </diagram>
</mxfile>
